# xmcd CD database file
#
# Track frame offsets:
#	150
#	7500
#	19650
#	38175
#	60150
#	79350
#	97350
#	112950
#	128700
#	145950
#	171300
#	193275
#	207750
#	222900
#
# Disc length: 3182 seconds
#
# Revision: 0
# Processed by: cddbd v1.5.1PL0 Copyright (c) Steve Scherf et al.
# Submitted via: CDex 1.51
#
DISCID=bf0c6c0e
DTITLE=Semper-House-Band Dresden - Classic Jazz Live
DYEAR=1987
DGENRE=Jazz
TTITLE0=Trumpet Volontary
TTITLE1=Ungarischer Tanz No. 5
TTITLE2=Fidgety Feet
TTITLE3=Old Man River
TTITLE4=Creole Trombone
TTITLE5=Black and Blue
TTITLE6=Wilhelm Tell
TTITLE7=Semper-Opern dreiachtundzwanzig
TTITLE8=Jazz Me Blues
TTITLE9=Basin Street Blues
TTITLE10=Beale Street Blues
TTITLE11=Sie will nicht Blumen
TTITLE12=Royal Garden Blues
TTITLE13=Tiger Rag
EXTD=YEAR: 1987
EXTT0=
EXTT1=
EXTT2=
EXTT3=
EXTT4=
EXTT5=
EXTT6=
EXTT7=
EXTT8=
EXTT9=
EXTT10=
EXTT11=
EXTT12=
EXTT13=
PLAYORDER=
